<mxfile host="app.diagrams.net" modified="2024-04-29T16:56:45.157Z" agent="Mozilla/5.0 (Windows NT 10.0; Win64; x64) AppleWebKit/537.36 (KHTML, like Gecko) Chrome/123.0.0.0 Safari/537.36" etag="jKLGikf839SsT6Sw65Q7" version="24.2.1" type="device">
  <diagram name="Page-1" id="XfErScnl_TTIFmYA3tG9">
    <mxGraphModel dx="1221" dy="652" grid="1" gridSize="10" guides="1" tooltips="1" connect="1" arrows="1" fold="1" page="1" pageScale="1" pageWidth="1654" pageHeight="1169" math="0" shadow="0">
      <root>
        <mxCell id="0" />
        <mxCell id="1" parent="0" />
        <mxCell id="gfvJl_Bq4A_eAV3Zkf7P-1" value="&lt;font style=&quot;font-size: 15px;&quot;&gt;Smart School Administrative System&lt;/font&gt;" style="swimlane;whiteSpace=wrap;html=1;" parent="1" vertex="1">
          <mxGeometry x="360" y="10" width="650" height="1010" as="geometry" />
        </mxCell>
        <mxCell id="gfvJl_Bq4A_eAV3Zkf7P-4" value="&lt;font style=&quot;font-size: 15px;&quot;&gt;Login&lt;/font&gt;" style="ellipse;whiteSpace=wrap;html=1;fillColor=#d5e8d4;strokeColor=#82b366;" parent="gfvJl_Bq4A_eAV3Zkf7P-1" vertex="1">
          <mxGeometry x="250" y="520" width="140" height="70" as="geometry" />
        </mxCell>
        <mxCell id="gfvJl_Bq4A_eAV3Zkf7P-9" value="&lt;font style=&quot;font-size: 15px;&quot;&gt;manage&lt;/font&gt;&lt;div&gt;&lt;font style=&quot;font-size: 15px;&quot;&gt;teacher&lt;/font&gt;&lt;/div&gt;" style="ellipse;whiteSpace=wrap;html=1;fillColor=#b1ddf0;strokeColor=#10739e;" parent="gfvJl_Bq4A_eAV3Zkf7P-1" vertex="1">
          <mxGeometry x="250" y="30" width="140" height="70" as="geometry" />
        </mxCell>
        <mxCell id="gfvJl_Bq4A_eAV3Zkf7P-10" value="&lt;font style=&quot;font-size: 15px;&quot;&gt;manage&lt;/font&gt;&lt;div&gt;&lt;font style=&quot;font-size: 15px;&quot;&gt;student&lt;/font&gt;&lt;/div&gt;" style="ellipse;whiteSpace=wrap;html=1;fillColor=#b1ddf0;strokeColor=#10739e;" parent="gfvJl_Bq4A_eAV3Zkf7P-1" vertex="1">
          <mxGeometry x="250" y="110" width="140" height="70" as="geometry" />
        </mxCell>
        <mxCell id="gfvJl_Bq4A_eAV3Zkf7P-21" value="&lt;font style=&quot;font-size: 15px;&quot;&gt;generate&lt;/font&gt;&lt;div&gt;&lt;font style=&quot;font-size: 15px;&quot;&gt;timetables&lt;/font&gt;&lt;/div&gt;" style="ellipse;whiteSpace=wrap;html=1;fillColor=#b1ddf0;strokeColor=#10739e;" parent="gfvJl_Bq4A_eAV3Zkf7P-1" vertex="1">
          <mxGeometry x="250" y="190" width="140" height="70" as="geometry" />
        </mxCell>
        <mxCell id="gfvJl_Bq4A_eAV3Zkf7P-22" value="&lt;font style=&quot;font-size: 15px;&quot;&gt;manage&lt;/font&gt;&lt;div&gt;&lt;font style=&quot;font-size: 15px;&quot;&gt;finances&lt;/font&gt;&lt;/div&gt;" style="ellipse;whiteSpace=wrap;html=1;fillColor=#b1ddf0;strokeColor=#10739e;" parent="gfvJl_Bq4A_eAV3Zkf7P-1" vertex="1">
          <mxGeometry x="250" y="270" width="140" height="70" as="geometry" />
        </mxCell>
        <mxCell id="gfvJl_Bq4A_eAV3Zkf7P-23" value="&lt;font style=&quot;font-size: 15px;&quot;&gt;retrain models&lt;/font&gt;" style="ellipse;whiteSpace=wrap;html=1;fillColor=#d0cee2;strokeColor=#56517e;" parent="gfvJl_Bq4A_eAV3Zkf7P-1" vertex="1">
          <mxGeometry x="250" y="350" width="140" height="70" as="geometry" />
        </mxCell>
        <mxCell id="gfvJl_Bq4A_eAV3Zkf7P-43" value="&lt;font style=&quot;font-size: 14px;&quot;&gt;forecast&lt;/font&gt;&lt;div style=&quot;font-size: 14px;&quot;&gt;&lt;font style=&quot;font-size: 14px;&quot;&gt;finances&lt;/font&gt;&lt;/div&gt;" style="ellipse;whiteSpace=wrap;html=1;fillColor=#fad9d5;strokeColor=#ae4132;" parent="gfvJl_Bq4A_eAV3Zkf7P-1" vertex="1">
          <mxGeometry x="490" y="230" width="120" height="70" as="geometry" />
        </mxCell>
        <mxCell id="gfvJl_Bq4A_eAV3Zkf7P-44" value="&amp;lt;&amp;lt;includes&amp;gt;&amp;gt;" style="endArrow=open;endSize=12;dashed=1;html=1;rounded=0;exitX=1;exitY=0.5;exitDx=0;exitDy=0;entryX=0;entryY=0.5;entryDx=0;entryDy=0;" parent="gfvJl_Bq4A_eAV3Zkf7P-1" source="gfvJl_Bq4A_eAV3Zkf7P-22" target="gfvJl_Bq4A_eAV3Zkf7P-43" edge="1">
          <mxGeometry width="160" relative="1" as="geometry">
            <mxPoint x="339" y="555" as="sourcePoint" />
            <mxPoint x="490" y="305" as="targetPoint" />
          </mxGeometry>
        </mxCell>
        <mxCell id="gfvJl_Bq4A_eAV3Zkf7P-6" value="&lt;font style=&quot;font-size: 15px;&quot;&gt;take attendance&lt;/font&gt;" style="ellipse;whiteSpace=wrap;html=1;fillColor=#fad7ac;strokeColor=#b46504;" parent="gfvJl_Bq4A_eAV3Zkf7P-1" vertex="1">
          <mxGeometry x="255" y="620" width="140" height="70" as="geometry" />
        </mxCell>
        <mxCell id="gfvJl_Bq4A_eAV3Zkf7P-7" value="&lt;font style=&quot;font-size: 15px;&quot;&gt;monitor students&#39;&amp;nbsp;&lt;/font&gt;&lt;div style=&quot;font-size: 15px;&quot;&gt;&lt;font style=&quot;font-size: 15px;&quot;&gt;emotion&lt;/font&gt;&lt;/div&gt;" style="ellipse;whiteSpace=wrap;html=1;fillColor=#fad7ac;strokeColor=#b46504;" parent="gfvJl_Bq4A_eAV3Zkf7P-1" vertex="1">
          <mxGeometry x="255" y="710" width="140" height="70" as="geometry" />
        </mxCell>
        <mxCell id="gfvJl_Bq4A_eAV3Zkf7P-24" value="&lt;font style=&quot;font-size: 15px;&quot;&gt;upload scores&lt;/font&gt;" style="ellipse;whiteSpace=wrap;html=1;fillColor=#fad7ac;strokeColor=#b46504;" parent="gfvJl_Bq4A_eAV3Zkf7P-1" vertex="1">
          <mxGeometry x="255" y="800" width="140" height="70" as="geometry" />
        </mxCell>
        <mxCell id="gfvJl_Bq4A_eAV3Zkf7P-25" value="&lt;font style=&quot;font-size: 15px;&quot;&gt;check students&#39;&lt;/font&gt;&lt;div style=&quot;font-size: 15px;&quot;&gt;&lt;font style=&quot;font-size: 15px;&quot;&gt;performance&lt;/font&gt;&lt;/div&gt;" style="ellipse;whiteSpace=wrap;html=1;fillColor=#fad7ac;strokeColor=#b46504;" parent="gfvJl_Bq4A_eAV3Zkf7P-1" vertex="1">
          <mxGeometry x="255" y="890" width="140" height="70" as="geometry" />
        </mxCell>
        <mxCell id="gfvJl_Bq4A_eAV3Zkf7P-35" value="&lt;font style=&quot;font-size: 14px;&quot;&gt;predict&amp;nbsp;&lt;/font&gt;&lt;div style=&quot;font-size: 14px;&quot;&gt;&lt;font style=&quot;font-size: 14px;&quot;&gt;performance&lt;/font&gt;&lt;/div&gt;" style="ellipse;whiteSpace=wrap;html=1;fillColor=#fad9d5;strokeColor=#ae4132;" parent="gfvJl_Bq4A_eAV3Zkf7P-1" vertex="1">
          <mxGeometry x="490" y="920" width="120" height="60" as="geometry" />
        </mxCell>
        <mxCell id="gfvJl_Bq4A_eAV3Zkf7P-36" value="&amp;lt;&amp;lt;includes&amp;gt;&amp;gt;" style="endArrow=open;endSize=12;dashed=1;html=1;rounded=0;entryX=0;entryY=0.5;entryDx=0;entryDy=0;exitX=1;exitY=0.5;exitDx=0;exitDy=0;" parent="gfvJl_Bq4A_eAV3Zkf7P-1" source="gfvJl_Bq4A_eAV3Zkf7P-25" target="gfvJl_Bq4A_eAV3Zkf7P-35" edge="1">
          <mxGeometry width="160" relative="1" as="geometry">
            <mxPoint x="200" y="420" as="sourcePoint" />
            <mxPoint x="360" y="420" as="targetPoint" />
          </mxGeometry>
        </mxCell>
        <mxCell id="gfvJl_Bq4A_eAV3Zkf7P-2" value="Teacher" style="shape=umlActor;verticalLabelPosition=bottom;verticalAlign=top;html=1;outlineConnect=0;fillColor=#fad7ac;strokeColor=#b46504;" parent="gfvJl_Bq4A_eAV3Zkf7P-1" vertex="1">
          <mxGeometry x="-110" y="750" width="45" height="90" as="geometry" />
        </mxCell>
        <mxCell id="befHpTTj9A52J1tXyz4g-2" value="" style="endArrow=none;startArrow=block;endFill=0;startFill=1;html=1;rounded=0;exitX=0.025;exitY=0.66;exitDx=0;exitDy=0;exitPerimeter=0;" parent="gfvJl_Bq4A_eAV3Zkf7P-1" source="gfvJl_Bq4A_eAV3Zkf7P-4" edge="1">
          <mxGeometry width="160" relative="1" as="geometry">
            <mxPoint x="-150" y="674" as="sourcePoint" />
            <mxPoint x="-60" y="770" as="targetPoint" />
          </mxGeometry>
        </mxCell>
        <mxCell id="gfvJl_Bq4A_eAV3Zkf7P-30" value="" style="endArrow=block;startArrow=none;endFill=1;startFill=0;html=1;rounded=0;" parent="gfvJl_Bq4A_eAV3Zkf7P-1" source="gfvJl_Bq4A_eAV3Zkf7P-2" target="gfvJl_Bq4A_eAV3Zkf7P-6" edge="1">
          <mxGeometry width="160" relative="1" as="geometry">
            <mxPoint x="-70" y="330" as="sourcePoint" />
            <mxPoint x="101" y="220" as="targetPoint" />
          </mxGeometry>
        </mxCell>
        <mxCell id="gfvJl_Bq4A_eAV3Zkf7P-31" value="" style="endArrow=block;startArrow=none;endFill=1;startFill=0;html=1;rounded=0;entryX=0;entryY=0.5;entryDx=0;entryDy=0;" parent="gfvJl_Bq4A_eAV3Zkf7P-1" source="gfvJl_Bq4A_eAV3Zkf7P-2" target="gfvJl_Bq4A_eAV3Zkf7P-7" edge="1">
          <mxGeometry width="160" relative="1" as="geometry">
            <mxPoint x="-70" y="371" as="sourcePoint" />
            <mxPoint x="76" y="340" as="targetPoint" />
          </mxGeometry>
        </mxCell>
        <mxCell id="gfvJl_Bq4A_eAV3Zkf7P-32" value="" style="endArrow=block;startArrow=none;endFill=1;startFill=0;html=1;rounded=0;entryX=0;entryY=0.5;entryDx=0;entryDy=0;" parent="gfvJl_Bq4A_eAV3Zkf7P-1" source="gfvJl_Bq4A_eAV3Zkf7P-2" target="gfvJl_Bq4A_eAV3Zkf7P-24" edge="1">
          <mxGeometry width="160" relative="1" as="geometry">
            <mxPoint x="-50" y="394" as="sourcePoint" />
            <mxPoint x="95" y="446" as="targetPoint" />
          </mxGeometry>
        </mxCell>
        <mxCell id="gfvJl_Bq4A_eAV3Zkf7P-34" value="" style="endArrow=block;startArrow=none;endFill=1;startFill=0;html=1;rounded=0;entryX=0.054;entryY=0.186;entryDx=0;entryDy=0;entryPerimeter=0;" parent="gfvJl_Bq4A_eAV3Zkf7P-1" source="gfvJl_Bq4A_eAV3Zkf7P-2" target="gfvJl_Bq4A_eAV3Zkf7P-25" edge="1">
          <mxGeometry width="160" relative="1" as="geometry">
            <mxPoint x="-120" y="450" as="sourcePoint" />
            <mxPoint x="50" y="568" as="targetPoint" />
          </mxGeometry>
        </mxCell>
        <mxCell id="befHpTTj9A52J1tXyz4g-9" value="&lt;font style=&quot;font-size: 15px;&quot;&gt;Register&lt;/font&gt;" style="ellipse;whiteSpace=wrap;html=1;fillColor=#b1ddf0;strokeColor=#10739e;" parent="gfvJl_Bq4A_eAV3Zkf7P-1" vertex="1">
          <mxGeometry x="250" y="430" width="140" height="70" as="geometry" />
        </mxCell>
        <mxCell id="gfvJl_Bq4A_eAV3Zkf7P-3" value="Administrator" style="shape=umlActor;verticalLabelPosition=bottom;verticalAlign=top;html=1;outlineConnect=0;fillColor=#b1ddf0;strokeColor=#10739e;" parent="1" vertex="1">
          <mxGeometry x="250" y="250" width="45" height="90" as="geometry" />
        </mxCell>
        <mxCell id="5a7wYdTWoLjH8s05jRu5-2" value="App Manager" style="shape=umlActor;verticalLabelPosition=bottom;verticalAlign=top;html=1;outlineConnect=0;fillColor=#d0cee2;strokeColor=#56517e;" parent="1" vertex="1">
          <mxGeometry x="1100" y="360" width="45" height="90" as="geometry" />
        </mxCell>
        <mxCell id="gfvJl_Bq4A_eAV3Zkf7P-37" value="" style="endArrow=none;startArrow=block;endFill=0;startFill=1;html=1;rounded=0;exitX=0;exitY=0.5;exitDx=0;exitDy=0;" parent="1" source="gfvJl_Bq4A_eAV3Zkf7P-9" target="gfvJl_Bq4A_eAV3Zkf7P-3" edge="1">
          <mxGeometry width="160" relative="1" as="geometry">
            <mxPoint x="951" y="197" as="sourcePoint" />
            <mxPoint x="290" y="290" as="targetPoint" />
          </mxGeometry>
        </mxCell>
        <mxCell id="gfvJl_Bq4A_eAV3Zkf7P-38" value="" style="endArrow=none;startArrow=block;endFill=0;startFill=1;html=1;rounded=0;exitX=0;exitY=0.5;exitDx=0;exitDy=0;" parent="1" source="gfvJl_Bq4A_eAV3Zkf7P-10" target="gfvJl_Bq4A_eAV3Zkf7P-3" edge="1">
          <mxGeometry width="160" relative="1" as="geometry">
            <mxPoint x="910" y="170" as="sourcePoint" />
            <mxPoint x="1091" y="294" as="targetPoint" />
          </mxGeometry>
        </mxCell>
        <mxCell id="gfvJl_Bq4A_eAV3Zkf7P-40" value="" style="endArrow=none;startArrow=block;endFill=0;startFill=1;html=1;rounded=0;" parent="1" source="gfvJl_Bq4A_eAV3Zkf7P-21" target="gfvJl_Bq4A_eAV3Zkf7P-3" edge="1">
          <mxGeometry width="160" relative="1" as="geometry">
            <mxPoint x="917" y="356" as="sourcePoint" />
            <mxPoint x="1080" y="330" as="targetPoint" />
          </mxGeometry>
        </mxCell>
        <mxCell id="gfvJl_Bq4A_eAV3Zkf7P-41" value="" style="endArrow=none;startArrow=block;endFill=0;startFill=1;html=1;rounded=0;exitX=0;exitY=0.5;exitDx=0;exitDy=0;" parent="1" source="gfvJl_Bq4A_eAV3Zkf7P-22" target="gfvJl_Bq4A_eAV3Zkf7P-3" edge="1">
          <mxGeometry width="160" relative="1" as="geometry">
            <mxPoint x="930" y="460" as="sourcePoint" />
            <mxPoint x="1115" y="350" as="targetPoint" />
          </mxGeometry>
        </mxCell>
        <mxCell id="gfvJl_Bq4A_eAV3Zkf7P-42" value="" style="endArrow=none;startArrow=block;endFill=0;startFill=1;html=1;rounded=0;exitX=1;exitY=0.5;exitDx=0;exitDy=0;" parent="1" source="gfvJl_Bq4A_eAV3Zkf7P-23" target="5a7wYdTWoLjH8s05jRu5-2" edge="1">
          <mxGeometry width="160" relative="1" as="geometry">
            <mxPoint x="950" y="585" as="sourcePoint" />
            <mxPoint x="1110" y="381" as="targetPoint" />
          </mxGeometry>
        </mxCell>
        <mxCell id="befHpTTj9A52J1tXyz4g-8" value="" style="endArrow=none;startArrow=block;endFill=0;startFill=1;html=1;rounded=0;exitX=0;exitY=0.5;exitDx=0;exitDy=0;" parent="1" source="gfvJl_Bq4A_eAV3Zkf7P-4" target="gfvJl_Bq4A_eAV3Zkf7P-3" edge="1">
          <mxGeometry width="160" relative="1" as="geometry">
            <mxPoint x="631" y="414" as="sourcePoint" />
            <mxPoint x="305" y="340" as="targetPoint" />
          </mxGeometry>
        </mxCell>
        <mxCell id="befHpTTj9A52J1tXyz4g-10" value="" style="endArrow=none;startArrow=block;endFill=0;startFill=1;html=1;rounded=0;exitX=0;exitY=0.5;exitDx=0;exitDy=0;" parent="1" source="befHpTTj9A52J1tXyz4g-9" target="gfvJl_Bq4A_eAV3Zkf7P-3" edge="1">
          <mxGeometry width="160" relative="1" as="geometry">
            <mxPoint x="635" y="585" as="sourcePoint" />
            <mxPoint x="320" y="342" as="targetPoint" />
          </mxGeometry>
        </mxCell>
      </root>
    </mxGraphModel>
  </diagram>
</mxfile>
